<svg xmlns="http://www.w3.org/2000/svg" xmlns:xlink="http://www.w3.org/1999/xlink" width="468" zoomAndPan="magnify" viewBox="0 0 351 179.999997" height="240" preserveAspectRatio="xMidYMid meet" version="1.0"><path fill="#242424" d="M 300.257812 71.109375 C 289.90625 56.882812 259.660156 60.777344 254.5 61.554688 C 235.621094 45.710938 218.039062 56.042969 212.890625 59.75 C 212.257812 57.816406 211.476562 55.941406 210.550781 54.128906 C 209.625 52.316406 208.5625 50.585938 207.367188 48.933594 C 206.171875 47.285156 204.855469 45.742188 203.417969 44.296875 C 201.980469 42.851562 200.441406 41.527344 198.796875 40.320312 C 197.15625 39.117188 195.429688 38.046875 193.617188 37.109375 C 191.808594 36.171875 189.9375 35.378906 188.003906 34.730469 C 186.070312 34.085938 184.097656 33.59375 182.089844 33.25 C 180.078125 32.910156 178.054688 32.726562 176.015625 32.703125 C 173.976562 32.675781 171.949219 32.804688 169.929688 33.09375 C 167.910156 33.382812 165.929688 33.828125 163.976562 34.421875 C 162.027344 35.019531 160.136719 35.761719 158.304688 36.652344 C 156.46875 37.542969 154.71875 38.570312 153.042969 39.734375 C 151.371094 40.894531 149.796875 42.179688 148.324219 43.585938 C 146.847656 44.996094 145.492188 46.507812 144.253906 48.125 C 143.019531 49.742188 141.914062 51.445312 140.941406 53.234375 C 139.96875 55.023438 139.140625 56.875 138.453125 58.792969 C 131.996094 54.605469 115.683594 46.921875 98.238281 61.546875 C 93.078125 60.777344 62.882812 56.882812 52.480469 71.101562 C 52.339844 71.289062 52.242188 71.5 52.199219 71.730469 C 52.132812 72.175781 52.242188 72.574219 52.53125 72.921875 L 85.136719 114.414062 C 89.917969 120.539062 95.410156 125.949219 101.609375 130.640625 C 107.808594 135.335938 114.507812 139.15625 121.707031 142.105469 C 129.625 145.335938 137.761719 147.859375 146.121094 149.679688 C 154.476562 151.5 162.929688 152.589844 171.472656 152.949219 L 171.859375 153.046875 L 171.859375 152.957031 C 173.480469 153.019531 175.101562 153.074219 176.691406 153.078125 L 177.378906 153.078125 L 178.699219 153.21875 L 178.699219 153.050781 C 206.574219 152.652344 230.453125 141.671875 245.632812 132.386719 C 254.597656 126.910156 262.359375 120.074219 268.914062 111.871094 L 300.179688 72.90625 C 300.402344 72.644531 300.515625 72.34375 300.519531 72 C 300.527344 71.660156 300.425781 71.351562 300.214844 71.082031 Z M 253.070312 64.296875 L 253.609375 64.765625 L 254.300781 64.640625 C 254.535156 64.601562 270.488281 61.988281 283.613281 64.9375 C 274.503906 63.558594 263.117188 65.046875 253.664062 76.242188 C 251.8125 74.964844 249.796875 74.042969 247.617188 73.472656 C 245.441406 72.902344 243.230469 72.71875 240.988281 72.921875 C 233.101562 73.609375 225.285156 78.859375 217.742188 88.53125 C 216.15625 87.191406 214.398438 86.144531 212.46875 85.382812 C 213.808594 81.78125 214.589844 78.058594 214.808594 74.21875 C 215.027344 70.382812 214.675781 66.597656 213.753906 62.863281 C 216.507812 60.585938 233.785156 47.632812 253.050781 64.296875 Z M 100.28125 79.113281 C 101.878906 77.898438 103.644531 77.011719 105.578125 76.464844 C 107.511719 75.917969 109.480469 75.742188 111.480469 75.9375 C 118.726562 76.574219 126.0625 81.753906 133.292969 91.292969 C 131.65625 121.0625 150.082031 138.929688 161.957031 147.265625 C 98.164062 127.941406 99.777344 84.792969 100.28125 79.113281 Z M 152.917969 89.675781 C 157.96875 91.742188 161.550781 97.011719 163.585938 105.265625 C 161.480469 114.792969 162.035156 128.308594 169.6875 146.816406 C 168.601562 146.007812 167.585938 145.117188 166.636719 144.152344 C 163.636719 140.933594 161.109375 137.382812 159.046875 133.5 C 156.867188 129.617188 154.972656 125.59375 153.367188 121.441406 C 151.675781 117.304688 150.191406 113.0625 148.832031 108.765625 C 149.535156 113.246094 150.558594 117.65625 151.898438 121.992188 C 153.242188 126.34375 154.886719 130.578125 156.832031 134.699219 C 158.476562 138.070312 160.460938 141.230469 162.785156 144.171875 C 151.484375 135.988281 134.886719 119.234375 136.300781 91.679688 C 138.566406 90.472656 146.175781 86.90625 152.917969 89.675781 Z M 180.5625 147.167969 C 180.1875 148.242188 179.496094 149.046875 178.492188 149.582031 C 178.195312 143.449219 177.800781 137.316406 177.339844 131.1875 C 176.855469 124.414062 176.261719 117.652344 175.460938 110.894531 C 175.214844 117.691406 175.171875 124.484375 175.242188 131.269531 C 175.242188 137.46875 175.386719 143.609375 175.585938 149.773438 L 175.191406 149.65625 C 174.257812 149.179688 173.585938 148.457031 173.183594 147.484375 C 159.496094 115.796875 167.105469 99.265625 172.867188 92.292969 C 173.171875 91.898438 173.542969 91.585938 173.984375 91.355469 C 174.425781 91.125 174.894531 91 175.394531 90.976562 L 175.460938 90.976562 C 175.960938 90.988281 176.433594 91.101562 176.882812 91.320312 C 177.332031 91.535156 177.71875 91.835938 178.035156 92.21875 C 191.96875 107.710938 185.597656 133.296875 180.5625 147.167969 Z M 183.410156 148.195312 C 187.242188 137.648438 191.726562 120.640625 188.171875 105.679688 C 193.382812 94.703125 199.363281 88.40625 205.492188 87.492188 C 211.011719 86.671875 215.332031 90.378906 216.472656 91.480469 C 220.316406 119.875 199.601562 139.011719 189.683594 146.363281 C 190.488281 145.65625 191.253906 144.90625 191.976562 144.117188 C 194.992188 140.65625 197.375 136.800781 199.125 132.558594 C 200.875 128.386719 202.121094 124.070312 202.863281 119.605469 C 203.671875 115.191406 203.949219 110.738281 203.683594 106.257812 C 202.808594 110.625 201.710938 114.882812 200.566406 119.089844 C 199.433594 123.28125 198.023438 127.378906 196.335938 131.378906 C 194.691406 135.363281 192.621094 139.113281 190.125 142.628906 C 188.074219 145.34375 185.71875 147.761719 183.050781 149.875 C 182.867188 149.875 182.679688 149.910156 182.488281 149.917969 C 182.867188 149.371094 183.175781 148.789062 183.410156 148.167969 Z M 219.480469 91.246094 C 226.671875 81.765625 233.972656 76.601562 241.183594 75.945312 C 243.234375 75.761719 245.25 75.957031 247.226562 76.53125 C 249.207031 77.105469 251.011719 78.023438 252.644531 79.28125 C 253.332031 81.347656 257.085938 93.664062 249.9375 108.074219 C 241.734375 124.609375 222.859375 137.695312 193.804688 147.058594 C 204.71875 138.242188 223.152344 119.015625 219.480469 91.246094 Z M 175.488281 35.703125 C 176.21875 35.699219 176.949219 35.71875 177.675781 35.761719 C 178.402344 35.804688 179.128906 35.871094 179.855469 35.957031 C 180.578125 36.042969 181.300781 36.148438 182.019531 36.28125 C 182.734375 36.410156 183.449219 36.558594 184.15625 36.734375 C 184.867188 36.90625 185.570312 37.097656 186.265625 37.3125 C 186.960938 37.527344 187.652344 37.765625 188.335938 38.019531 C 189.019531 38.277344 189.691406 38.554688 190.359375 38.851562 C 191.023438 39.148438 191.679688 39.464844 192.328125 39.800781 C 192.972656 40.136719 193.609375 40.492188 194.234375 40.867188 C 194.859375 41.242188 195.472656 41.636719 196.074219 42.046875 C 196.675781 42.460938 197.265625 42.890625 197.84375 43.335938 C 198.417969 43.785156 198.980469 44.25 199.527344 44.730469 C 200.074219 45.210938 200.605469 45.707031 201.125 46.222656 C 201.640625 46.734375 202.144531 47.261719 202.628906 47.804688 C 203.113281 48.347656 203.582031 48.90625 204.035156 49.476562 C 204.488281 50.050781 204.921875 50.632812 205.335938 51.230469 C 205.753906 51.828125 206.152344 52.441406 206.53125 53.0625 C 206.910156 53.683594 207.273438 54.316406 207.613281 54.960938 C 207.957031 55.601562 208.277344 56.253906 208.578125 56.917969 C 208.882812 57.582031 209.164062 58.253906 209.425781 58.933594 C 209.683594 59.613281 209.925781 60.300781 210.144531 60.992188 C 210.367188 61.6875 210.566406 62.386719 210.742188 63.09375 C 210.917969 63.800781 211.074219 64.511719 211.210938 65.226562 C 211.34375 65.941406 211.457031 66.664062 211.550781 67.386719 C 211.640625 68.105469 211.710938 68.832031 211.757812 69.558594 C 211.804688 70.285156 211.828125 71.011719 211.832031 71.742188 C 211.835938 72.46875 211.816406 73.195312 211.777344 73.921875 C 211.738281 74.652344 211.675781 75.375 211.589844 76.097656 C 211.503906 76.824219 211.398438 77.542969 211.269531 78.257812 C 211.144531 78.976562 210.992188 79.6875 210.824219 80.398438 C 210.652344 81.105469 210.460938 81.808594 210.246094 82.503906 C 210.03125 83.199219 209.796875 83.886719 209.542969 84.570312 C 208.0625 84.304688 206.574219 84.277344 205.085938 84.496094 C 198.414062 85.472656 192.320312 91.203125 186.921875 101.441406 C 185.464844 97.257812 183.265625 93.511719 180.320312 90.199219 C 179.683594 89.496094 178.9375 88.949219 178.074219 88.558594 C 177.210938 88.167969 176.304688 87.96875 175.359375 87.953125 C 174.414062 87.976562 173.519531 88.203125 172.671875 88.625 C 171.828125 89.046875 171.113281 89.628906 170.527344 90.371094 C 168.195312 93.265625 166.394531 96.457031 165.117188 99.945312 C 162.6875 93.300781 158.996094 88.875 154.078125 86.859375 C 149.9375 85.164062 145.6875 85.433594 142.148438 86.265625 C 141.308594 84.34375 140.644531 82.359375 140.152344 80.320312 C 139.660156 78.28125 139.351562 76.214844 139.226562 74.121094 C 139.097656 72.027344 139.152344 69.9375 139.390625 67.855469 C 139.632812 65.773438 140.050781 63.722656 140.648438 61.714844 L 141.339844 60.921875 L 140.972656 60.617188 C 141.570312 58.816406 142.304688 57.074219 143.171875 55.386719 C 144.042969 53.703125 145.039062 52.09375 146.164062 50.5625 C 147.285156 49.035156 148.519531 47.601562 149.867188 46.261719 C 151.214844 44.925781 152.660156 43.703125 154.199219 42.589844 C 155.738281 41.480469 157.355469 40.496094 159.046875 39.636719 C 160.742188 38.777344 162.492188 38.054688 164.300781 37.472656 C 166.105469 36.886719 167.949219 36.445312 169.824219 36.148438 C 171.703125 35.851562 173.589844 35.703125 175.488281 35.703125 Z M 98.433594 64.632812 L 99.121094 64.757812 L 99.667969 64.289062 C 116.738281 49.527344 132.292969 58.089844 137.503906 61.75 C 136.921875 63.835938 136.523438 65.953125 136.304688 68.109375 C 136.082031 70.261719 136.042969 72.417969 136.1875 74.578125 C 136.328125 76.742188 136.652344 78.875 137.15625 80.980469 C 137.660156 83.085938 138.335938 85.132812 139.1875 87.125 C 137.824219 87.597656 136.5 88.160156 135.210938 88.8125 C 127.621094 78.964844 119.699219 73.617188 111.75 72.914062 C 109.507812 72.710938 107.296875 72.894531 105.121094 73.464844 C 102.941406 74.035156 100.925781 74.957031 99.074219 76.234375 C 89.628906 65.054688 78.253906 63.574219 69.160156 64.929688 C 82.269531 61.996094 98.203125 64.605469 98.433594 64.640625 Z M 122.820312 139.28125 C 115.871094 136.433594 109.402344 132.746094 103.417969 128.210938 C 97.433594 123.679688 92.132812 118.453125 87.515625 112.539062 L 55.980469 72.390625 C 61.605469 69.320312 82.125 60.101562 97.28125 78.832031 C 97.023438 85.171875 97.835938 91.371094 99.722656 97.433594 C 98.070312 95.121094 96.289062 92.917969 94.375 90.820312 C 91.542969 87.828125 88.402344 85.195312 84.960938 82.925781 C 81.46875 80.679688 77.6875 79.15625 73.613281 78.351562 C 77.136719 80.207031 80.460938 82.375 83.582031 84.847656 C 86.613281 87.355469 89.476562 90.039062 92.179688 92.898438 C 94.941406 95.746094 97.445312 98.789062 99.972656 101.855469 L 102.648438 105.222656 C 109.300781 119.980469 123.964844 137.394531 155.851562 148.410156 C 144.484375 146.652344 133.472656 143.613281 122.820312 139.289062 Z M 266.574219 110.003906 C 260.238281 117.929688 252.738281 124.539062 244.074219 129.832031 C 233.941406 136.03125 219.878906 142.917969 203.359375 146.875 C 228.394531 137.496094 244.949219 124.90625 252.652344 109.300781 C 254.425781 105.730469 255.695312 101.992188 256.464844 98.078125 C 258.351562 94.585938 260.4375 91.21875 262.726562 87.972656 C 264.539062 85.425781 266.539062 83.035156 268.722656 80.796875 C 270.996094 78.558594 273.429688 76.507812 276.015625 74.636719 C 272.765625 75.5 269.816406 76.964844 267.164062 79.023438 C 264.515625 81.089844 262.214844 83.484375 260.261719 86.210938 C 259.148438 87.832031 258.140625 89.519531 257.246094 91.273438 C 257.414062 86.984375 256.871094 82.785156 255.609375 78.679688 C 270.742188 60.21875 291.105469 69.339844 296.738281 72.410156 Z M 266.574219 110.003906 " fill-opacity="1" fill-rule="nonzero"/><path fill="#242424" d="M 202.269531 58.082031 C 202.703125 58.820312 202.960938 59.640625 203.347656 60.410156 C 203.71875 61.183594 204.023438 61.984375 204.257812 62.808594 C 204.519531 63.628906 204.835938 64.433594 205.070312 65.269531 C 205.304688 66.101562 205.453125 66.957031 205.664062 67.796875 C 206.140625 69.484375 206.222656 71.242188 206.574219 72.992188 C 206.789062 74.746094 206.859375 76.53125 207.136719 78.351562 C 207.542969 76.570312 207.851562 74.769531 208.058594 72.957031 C 208.058594 71.136719 208.292969 69.269531 208.003906 67.445312 C 207.671875 63.679688 206.660156 60.101562 204.96875 56.71875 C 203.234375 53.328125 200.898438 50.421875 197.957031 48 C 195.097656 45.546875 191.832031 43.898438 188.160156 43.046875 C 191.183594 44.914062 193.917969 47.136719 196.355469 49.71875 C 198.738281 52.21875 200.710938 55.003906 202.269531 58.082031 Z M 202.269531 58.082031 " fill-opacity="1" fill-rule="nonzero"/></svg>